Chef Academy S01E08 PROPER PDTV-XVID Dodecahedron [Dodecahedron]

Episode 8: Too many Cooks (PROPER)

The students will collectively prepare a gala dinner for local esteemed
chefs and other VIPs. Chef Novelli chooses one of his students to be the
head chef for the gala dinner.

--

PROPER Reason: Source by Momentum had 7 extra minutes (duplicate scenes  
after commercial break, minute 25 to minute 32 removed). 

2-pass compression + Direct Stream Copy method.


   General

      Format : AVI
      Format/Info : Audio Video Interleave
      File size : 355 MiB
      Duration : 44mn 32s
      Overall bit rate : 1 115 Kbps
      Writing application : VirtualDubMod 1.5.4.1 (build 2178/release)
      Writing library : VirtualDubMod build 2178/release

   Video

      Format : MPEG-4 Visual
      Format profile : Streaming Video@L1
      Format settings, BVOP : Yes
      Format settings, QPel : No
      Format settings, GMC : No warppoints
      Format settings, Matrix : Custom
      Codec ID : XVID
      Codec ID/Hint : XviD
      Duration : 44mn 32s
      Bit rate : 979 Kbps
      Width : 512 pixels
      Height : 384 pixels
      Display aspect ratio : 4/3
      Frame rate : 29.970 fps
      Resolution : 24 bits
      Colorimetry : 4:2:0
      Scan type : Progressive
      Bits/(Pixel*Frame) : 0.166
      Stream size : 312 MiB (88%)
      Writing library : XviD 50

   Audio

      Format : MPEG Audio
      Format version : Version 1
      Format profile : Layer 3
      Codec ID : 55
      Codec ID/Hint : MP3
      Duration : 44mn 32s
      Bit rate mode : Variable
      Bit rate : 122 Kbps
      Minimum bit rate : 128 Kbps
      Channel(s) : 2 channels
      Sampling rate : 48.0 KHz
      Resolution : 16 bits
      Stream size : 38.8 MiB (11%)
      Alignment : Aligned on interleaves
      Interleave, duration : 24 ms (0.72 video frame)
      Interleave, preload duration : 557 ms
      Writing library : LAME3.98r
      Encoding settings : ABR